<svg id="Capa_1" enable-background="new 0 0 512 512" height="512" viewBox="0 0 512 512" width="512" xmlns="http://www.w3.org/2000/svg"><g><g><path d="m117.512 122.5c.15 26.532 11.592 50.5 29.988 67.115 18.396-16.615 29.838-40.583 29.988-67.115z"/><path d="m313.486 0h-265.986c-26.234 0-47.5 21.266-47.5 47.5v200c0 26.234 21.266 47.5 47.5 47.5h200c26.234 0 47.5-21.266 47.5-47.5v-177.729l30.967-46.451c6.645-9.968-.501-23.32-12.481-23.32zm-95.986 122.5h-10.006c-.137 32.369-12.916 61.888-33.888 83.622 7.951 3.292 16.491 5.516 25.464 6.461 8.239.867 14.214 8.249 13.347 16.488-.811 7.705-7.321 13.431-14.899 13.431-.525 0-1.055-.027-1.589-.083-17.622-1.855-34.006-7.394-48.43-15.799-14.424 8.405-30.807 13.944-48.43 15.799-.534.056-1.064.083-1.589.083-7.579 0-14.088-5.726-14.899-13.431-.867-8.239 5.108-15.621 13.347-16.488 8.973-.944 17.513-3.169 25.464-6.461-20.971-21.734-33.75-51.253-33.888-83.622h-10.004c-8.284 0-15-6.716-15-15s6.716-15 15-15h55v-25c0-8.284 6.716-15 15-15s15 6.716 15 15v25h55c8.284 0 15 6.716 15 15s-6.716 15-15 15z"/></g><g><path d="m341.077 387.668h47.044l-23.414-62.042z"/><path d="m464.5 217h-139.5v30.5c0 42.734-34.766 77.5-77.5 77.5h-30.5v117.229l-30.967 46.451c-6.646 9.968.5 23.32 12.481 23.32h265.986c26.234 0 47.5-21.266 47.5-47.5v-200c0-26.234-21.266-47.5-47.5-47.5zm-35.489 236.534c-1.744.658-3.534.97-5.294.97-6.062 0-11.77-3.701-14.036-9.708l-10.238-27.128h-69.791l-10.348 27.17c-2.949 7.742-11.614 11.626-19.356 8.679-7.742-2.948-11.627-11.615-8.679-19.356l56.325-147.887c.043-.114.088-.227.134-.339 2.838-6.938 9.515-11.427 17.011-11.435h.02c7.489 0 14.166 4.473 17.016 11.399.056.136.11.273.162.411l55.813 147.894c2.923 7.751-.989 16.405-8.739 19.33z"/></g></g></svg>